<svg xmlns="http://www.w3.org/2000/svg" xmlns:xlink="http://www.w3.org/1999/xlink" version="1.0" width="100%" height="100%" viewBox="0 0 250 100" preserveAspectRatio="xMidYMid meet" color-interpolation-filters="sRGB" style="margin: auto;"> 
     
    <rect x="0" y="0" width="100%" height="100%" fill="transparent" fill-opacity="0" class=""/> 
    <g fill="#13a49d" transform="translate(20,20)">
        <g class="" transform="translate(0,0)">
            <g>
                <rect fill="#13a49d" fill-opacity="0" stroke-width="2" x="0" y="0" width="60" height="60" class="image-rect"/> 
                <svg filter="url(#colors3546514326)" x="0" y="0" width="60" height="60" filtersec="colorsf8873855899" class="image-svg-svg primary" style="overflow: visible;">
                    <svg xmlns="http://www.w3.org/2000/svg" xmlns:xlink="http://www.w3.org/1999/xlink" version="1.1" x="0px" y="0px" viewBox="0 0 100 100" enable-background="new 0 0 100 100" xml:space="preserve">
                        <path d="M50,0C22.386,0,0,22.386,0,50c0,27.615,22.386,50,50,50s50-22.385,50-50C100,22.386,77.614,0,50,0z M50.038,77.443  c-15.165,0-27.459-12.293-27.459-27.459c0-15.165,12.294-27.459,27.459-27.459c12.856,0,23.646,8.837,26.634,20.768H64.527  c-2.536-5.469-8.075-9.273-14.489-9.273c-8.803,0-15.965,7.162-15.965,15.965s7.162,15.965,15.965,15.965  c6.437,0,11.991-3.83,14.516-9.33h12.132C73.717,68.578,62.915,77.443,50.038,77.443z">
                        </path>
                    </svg>
                </svg> 
                <defs>
                    <filter id="colors3546514326">
                        <feColorMatrix type="matrix" values="0 0 0 0 0.07421875  0 0 0 0 0.640625  0 0 0 0 0.61328125  0 0 0 1 0" class="icon-fecolormatrix"/>
                    </filter> 
                    <filter id="colorsf8873855899">
                        <feColorMatrix type="matrix" values="0 0 0 0 0.99609375  0 0 0 0 0.99609375  0 0 0 0 0.99609375  0 0 0 1 0" class="icon-fecolormatrix"/>
                    </filter> 
                    <filter id="colorsb5261842307">
                        <feColorMatrix type="matrix" values="0 0 0 0 0  0 0 0 0 0  0 0 0 0 0  0 0 0 1 0" class="icon-fecolormatrix">
                        </feColorMatrix>
                    </filter>
                </defs>
            </g>
        </g> 
        <g transform="translate(67,12.194999694824219)">
            <g>
                <g transform="scale(1)">
                    <g>
                        <path d="M26.07-11.51L33.87-8.13Q31.79-4.09 28.05-1.53 24.31 1.04 18.72 1.04L18.72 1.04Q15.02 1.04 11.93-0.23 8.84-1.5 6.6-3.77 4.36-6.04 3.09-9.13 1.82-12.22 1.82-15.93L1.82-15.93Q1.82-19.63 3.09-22.75 4.36-25.87 6.6-28.11 8.84-30.36 11.93-31.62 15.02-32.89 18.72-32.89L18.72-32.89Q24.25-32.89 28.02-30.36 31.79-27.82 33.54-23.79L33.54-23.79 25.74-20.54Q24.64-22.75 22.91-23.89 21.19-25.03 18.59-25.03L18.59-25.03Q16.9-25.03 15.41-24.38 13.91-23.73 12.77-22.55 11.63-21.39 10.99-19.7 10.34-18 10.34-15.93L10.34-15.93Q10.34-13.85 10.99-12.16 11.63-10.46 12.77-9.29 13.91-8.13 15.41-7.48 16.9-6.83 18.59-6.83L18.59-6.83Q21.25-6.83 23.11-8.03 24.96-9.23 26.07-11.51L26.07-11.51ZM61.1 0L61.1-4.16 60.58-4.16Q59.09-1.76 56.55-0.36 54.02 1.04 50.77 1.04L50.77 1.04Q44.72 1.04 41.76-2.67 38.81-6.37 38.81-12.54L38.81-12.54 38.81-31.85 47.32-31.85 47.32-13.59Q47.32-10.14 48.85-8.48 50.38-6.83 53.3-6.83L53.3-6.83Q55.06-6.83 56.39-7.57 57.72-8.32 58.66-9.59 59.61-10.86 60.09-12.58 60.58-14.3 60.58-16.25L60.58-16.25 60.58-31.85 69.09-31.85 69.09 0 61.1 0ZM76.38 0L76.38-31.85 84.37-31.85 84.37-27.43 84.89-27.43Q85.48-28.6 86.45-29.57 87.43-30.55 88.63-31.27 89.83-31.98 91.23-32.37 92.63-32.76 93.99-32.76L93.99-32.76Q95.68-32.76 96.88-32.44 98.09-32.11 98.93-31.59L98.93-31.59 96.66-23.86Q95.88-24.25 94.93-24.47 93.99-24.7 92.63-24.7L92.63-24.7Q90.87-24.7 89.44-24.02 88.01-23.34 87-22.1 86-20.87 85.44-19.21 84.89-17.55 84.89-15.6L84.89-15.6 84.89 0 76.38 0ZM121.16 0L121.16-3.38 120.64-3.38Q119.15-1.56 117.03-0.26 114.92 1.04 111.61 1.04L111.61 1.04Q109.14 1.04 106.96 0.23 104.78-0.58 103.16-2.02 101.53-3.45 100.62-5.46 99.71-7.48 99.71-9.88L99.71-9.88Q99.71-12.35 100.69-14.33 101.66-16.32 103.42-17.75 105.17-19.18 107.54-19.92 109.92-20.67 112.71-20.67L112.71-20.67Q115.83-20.67 117.85-20.18 119.86-19.7 121.16-19.18L121.16-19.18 121.16-20.15Q121.16-22.69 119.15-24.34 117.13-26 114.14-26L114.14-26Q109.72-26 106.67-22.3L106.67-22.3 100.49-26.52Q105.56-32.89 114.34-32.89L114.34-32.89Q121.75-32.89 125.65-29.41 129.55-25.94 129.55-19.11L129.55-19.11 129.55 0 121.16 0ZM121.16-12.94L121.16-12.94Q119.67-13.65 118.07-14.07 116.48-14.5 114.6-14.5L114.6-14.5Q111.54-14.5 109.88-13.16 108.23-11.83 108.23-9.88L108.23-9.88Q108.23-7.93 109.82-6.76 111.41-5.59 113.49-5.59L113.49-5.59Q115.18-5.59 116.61-6.21 118.04-6.83 119.05-7.83 120.06-8.84 120.61-10.17 121.16-11.51 121.16-12.94Z" transform="translate(-1.8199999332427979, 32.88999938964844)">
                        </path>
                    </g> 
                </g>
            </g> 
        </g>
    </g>
    
</svg>